<?xml version="1.0" encoding="utf-8"?>
<!-- Generator: Adobe Illustrator 16.0.3, SVG Export Plug-In . SVG Version: 6.00 Build 0)  -->
<!DOCTYPE svg PUBLIC "-//W3C//DTD SVG 1.1//EN" "http://www.w3.org/Graphics/SVG/1.1/DTD/svg11.dtd">
<svg version="1.1" id="Capa_1" xmlns="http://www.w3.org/2000/svg" xmlns:xlink="http://www.w3.org/1999/xlink" x="0px" y="0px"
	 width="500px" height="500px" viewBox="0 0 500 500" enable-background="new 0 0 500 500" xml:space="preserve">
<g>
	<path fill="#FFFFFF" d="M327.754,0c-94.976,0-172.246,77.269-172.246,172.246c0,39.08,13.091,75.154,35.104,104.088l-34.893,34.893
		c-0.221,0.223-0.423,0.455-0.614,0.695c-2.856-0.596-5.792-0.907-8.776-0.907c-11.393,0-22.106,4.437-30.165,12.497l-103.67,103.67
		C4.436,435.236,0,445.948,0,457.343c0,11.394,4.436,22.106,12.492,30.159c8.06,8.06,18.772,12.497,30.166,12.497
		s22.105-4.438,30.165-12.497l103.67-103.67c8.057-8.055,12.494-18.766,12.494-30.161c0-2.985-0.313-5.923-0.907-8.778
		c0.24-0.19,0.472-0.393,0.693-0.613l34.892-34.893c28.935,22.016,65.009,35.105,104.089,35.105
		c94.977,0,172.246-77.27,172.246-172.246C500,77.269,422.73,0,327.754,0z M61.367,476.049c-4.999,4.999-11.643,7.751-18.709,7.751
		s-13.71-2.752-18.71-7.752c-4.997-4.995-7.749-11.638-7.749-18.705c0-7.068,2.751-13.711,7.75-18.707l93.626-93.626l37.416,37.416
		L61.367,476.049z M166.387,370.915L129.1,333.628c4.94-4.251,11.078-6.399,17.229-6.399c6.775,0,13.553,2.58,18.71,7.738
		c4.997,4.994,7.749,11.637,7.749,18.705C172.788,360.072,170.524,366.119,166.387,370.915z M181.133,329.012
		c-1.38-1.939-2.922-3.783-4.639-5.5c-1.719-1.718-3.565-3.261-5.505-4.643l30.066-30.065c3.24,3.52,6.624,6.904,10.144,10.144
		L181.133,329.012z M327.754,328.293c-86.045,0-156.047-70.002-156.047-156.047c0-86.045,70.002-156.047,156.047-156.047
		s156.048,70.002,156.048,156.047C483.802,258.291,413.799,328.293,327.754,328.293z"/>
	<path fill="#FFFFFF" d="M327.754,34.557c-75.922,0-137.688,61.767-137.688,137.689c0,75.922,61.767,137.688,137.688,137.688
		s137.688-61.767,137.688-137.688C465.442,96.324,403.676,34.557,327.754,34.557z M327.754,293.736
		c-66.988,0-121.49-54.5-121.49-121.49c0-66.99,54.501-121.49,121.49-121.49c66.989,0,121.49,54.5,121.49,121.49
		C449.244,239.236,394.743,293.736,327.754,293.736z"/>
	<path fill="#FFFFFF" d="M383.995,85.786c-3.748-2.443-8.765-1.386-11.208,2.363c-2.442,3.747-1.384,8.766,2.363,11.207
		c24.756,16.134,39.535,43.382,39.535,72.89c0,20.158-7.056,39.805-19.869,55.319c-2.849,3.448-2.361,8.554,1.088,11.403
		c1.51,1.247,3.337,1.854,5.153,1.854c2.332,0,4.647-1.003,6.249-2.941c15.204-18.409,23.578-41.719,23.578-65.634
		C430.886,137.243,413.356,104.922,383.995,85.786z"/>
	<path fill="#FFFFFF" d="M346.496,70.815c-6.143-1.129-12.448-1.701-18.742-1.701c-4.474,0-8.099,3.626-8.099,8.1
		c0,4.473,3.625,8.099,8.099,8.099c5.315,0,10.637,0.483,15.815,1.434c0.496,0.091,0.987,0.135,1.473,0.135
		c3.833,0,7.239-2.733,7.957-6.637C353.807,75.845,350.896,71.624,346.496,70.815z"/>
</g>
</svg>
