<?xml version="1.0" encoding="utf-8"?>
<!-- Generator: Adobe Illustrator 16.0.3, SVG Export Plug-In . SVG Version: 6.00 Build 0)  -->
<!DOCTYPE svg PUBLIC "-//W3C//DTD SVG 1.1//EN" "http://www.w3.org/Graphics/SVG/1.1/DTD/svg11.dtd">
<svg version="1.1" id="Layer_1" xmlns="http://www.w3.org/2000/svg" xmlns:xlink="http://www.w3.org/1999/xlink" x="0px" y="0px"
	 width="500px" height="500px" viewBox="0 0 500 500" enable-background="new 0 0 500 500" xml:space="preserve">
<g>
	<path fill-rule="evenodd" clip-rule="evenodd" fill="#FC1010" d="M-69,259c0-4,0-8,0-12c0.802-2.333,0.802-4.667,0-7
		c0-4.333,0-8.667,0-13c1.347-8.185,0.795-16.52,1.967-24.719c4.226-29.57,12.916-57.825,25.259-84.969
		C-24.75,79.874-1.371,46.884,28.342,18.457C49.643-1.921,73.318-19.048,99.411-32.871c30.887-16.363,63.46-27.635,97.921-33.496
		c8.719-1.483,17.544-1.396,26.313-2.137C224.771-68.6,225.985-68.138,227-69c3.667,0,7.333,0,11,0c2,0.794,4,0.794,6,0
		c4.667,0,9.333,0,14,0c2.667,0.816,5.333,0.816,8,0c2.667,0,5.333,0,8,0c8.203,1.176,16.541,0.69,24.73,1.829
		c29.577,4.111,57.884,12.669,85.037,25.011c27.302,12.409,52.558,28.125,75.371,47.643c6.069,5.193,12.198,10.345,17.718,16.149
		c1.595,1.678,3.44,3.22,3.644,5.782c-0.22,1.824-1.652,2.808-2.813,3.965c-40.735,40.602-81.335,81.337-122.05,121.958
		c-2.195,2.19-4.049,4.946-7.473,5.521c-2.671-0.048-4.019-2.158-5.633-3.753c-9.822-9.698-19.617-19.425-29.302-29.262
		c-1.401-1.423-2.668-3.006-4.904-3.081c-2.484-0.782-3.958-2.57-4.88-4.906c-0.953-3.519-3.271-5.605-6.785-6.439
		c-8.638-5.621-17.657-10.298-28.056-11.72c-1.138-0.155-2.188-0.751-2.761-1.869c-11.773-0.31-23.555-1.154-35.302,0.6
		c-1.707,0.255-3.229,0.713-4.545,1.817c-7.199,3.405-14.272,7.052-21.022,11.301c-3.275,0.87-5.46,2.865-6.362,6.184
		c-1.737,3.958-4.467,7.19-7.469,10.226c-3.857,5.314-3.943,11.685-5.01,17.783c-1.974,11.304,0.51,22.173,3.188,33.017
		c0.148,0.517,0.195,1.049,0.168,1.582c-0.09,2.473,0.059,4.932,0.615,7.354c0.419,1.821,0.261,3.518-0.549,5.269
		c-4.054,8.771-1.867,17.227,1.488,25.579c3.688,5.415,5.276,11.792,8.064,17.626c1.462,4.123,4.691,7.362,5.851,11.648
		c2.85,4.37,5.868,8.624,7.942,13.444c-0.032,4.614-1.337,9.14-0.926,13.783c-0.731,4.271-2.463,8.243-3.838,12.312
		c-0.958,2.835-2.799,4.698-5.968,2.22c-2.316-1.658-1.53,1.205-2.373,1.675c-5.201,9.081-12.227,15.613-22.4,19.408
		c-23.062,8.602-45.566,18.649-68.537,27.5c-6.498,2.504-11.331,6.065-13.578,12.77c-0.423,1.261-1.098,2.427-2.12,3.333
		c-3.143,7.051-5.054,14.304-3.735,22.107c-0.248,9.164-2.607,18.028-3.821,27.044c0.039,1.18,0.645,2.073,1.473,2.854
		c1.908,2.219,4.55,3.81,5.702,6.677c0.122,0.461,0.156,0.93,0.125,1.404c-0.593,2.808-2.776,4.481-4.637,6.348
		c-16.584,16.628-33.205,33.22-49.803,49.834c-3.366,3.369-7.062,6.479-8.971,11.043c-3.166,0.53-4.908-1.742-6.712-3.608
		c-29.252-30.252-52.657-64.396-68.837-103.369c-10.144-24.433-17.34-49.677-21.108-75.86c-1.13-7.852-0.465-15.877-1.838-23.73
		c0-3,0-6,0-9C-68.198,263.667-68.198,261.333-69,259z"/>
	<path fill-rule="evenodd" clip-rule="evenodd" fill="#700B0B" d="M91.979,414.069c-0.149-0.321-0.298-0.642-0.447-0.963
		c1.79-3.617,5.47-5.386,8.052-8.244c0.7-0.525,1.486-0.812,2.349-0.944c0.623-0.105,1.235-0.11,1.859-0.059
		c2.799,0.505,5.608,0.662,8.451,0.662c97.921-0.022,195.841-0.02,293.762-0.013c3.002,0,6.008,0.116,8.807-1.171
		c1.961-0.768,1.713-2.585,1.928-4.178c0.375-7.653-1.712-15.002-2.791-22.464c-0.581-4.016-0.257-8.313-2.869-11.856
		c-1.936-3.026-2.183-6.584-3.083-9.934c-2.192-8.158-6.484-13.722-15.031-16.91c-21.308-7.95-42.194-17.018-63.31-25.487
		c-2.436-0.977-5.105-1.652-6.693-4.05c-0.972-2.656-3.298-0.75-4.865-1.408c-3.334-0.469-5.723-2.433-7.774-4.923
		c-2.314-2.812-4.51-5.72-6.871-8.492c-1.06-1.243-2.086-2.731-3.987-2.621c-4.07,0.235-5.47-2.396-6.289-5.686
		c-0.887-3.56-2.46-6.83-4.062-10.105c-0.975-1.991-0.923-4.173-0.545-6.336c0.92-2.577,0.925-5.223,0.571-7.896
		c3.55-5.303,5.815-11.258,8.504-16.997c1.529-0.986,1.131-2.848,1.866-4.197c5.351-6.548,8.438-14.18,10.661-22.23
		c0.572-2.069,0.995-4.217,2.624-5.809c2.979-4.473,0.745-9.805,2.346-14.527c0.252-0.744-0.442,0.524-0.724,0.034
		c-1.301-0.499-1.654-1.591-1.819-2.811c-0.044-2.946,1.868-4.882,3.706-6.747c8.463-8.59,17.001-17.107,25.573-25.589
		c1.406-1.393,2.857-2.782,4.977-3.042c0.247,0.007,0.495,0.023,0.742,0.033c0.237,0.052,0.478,0.111,0.719,0.161
		c1.679,0.83,2.858,2.261,4.146,3.548c64.903,64.836,129.729,129.751,194.614,194.605c1.974,1.974,4.346,3.765,4.345,7.001
		c-0.323,4.079-2.199,7.66-3.761,11.314c-17.694,41.4-42.323,78.114-75.242,108.907c-49.024,45.856-106.726,74.255-173.22,84.434
		c-7.685,1.176-15.529,0.493-23.197,1.919c-1,0-2,0-3,0c-0.819-0.794-1.853-0.397-2.796-0.502c-0.762,0.05-1.582-0.163-2.204,0.502
		c-2.333,0-4.667,0-7,0c-1.667-0.795-3.333-0.795-5,0c-2.667,0-5.333,0-8,0c-3.254-2.331-6.12-5.089-8.945-7.916
		c-47.274-47.31-94.574-94.593-141.855-141.895C95.103,419.092,92.64,417.232,91.979,414.069z"/>
	<path fill-rule="evenodd" clip-rule="evenodd" fill="#E21717" d="M348.089,158.05c1.595-1.456,3.249-2.854,4.775-4.379
		c40.55-40.527,81.081-81.073,121.642-121.589c1.612-1.611,2.895-3.753,5.474-4.115c3.049-0.865,4.618,1.412,6.227,3.174
		c44.721,48.969,72.942,105.921,82.887,171.68c1.261,8.339,0.529,16.842,1.907,25.18c0,1.667,0,3.333,0,5
		c-0.615,0.667-0.615,1.333,0,2c0,1.667,0,3.333,0,5c-0.802,2.333-0.802,4.667,0,7c0,4.333,0,8.667,0,13
		c-0.802,2.333-0.802,4.667,0,7c0,3,0,6,0,9c-1.605,8.315-0.742,16.834-2.041,25.168c-1.711,10.979-3.281,21.998-7.326,32.451
		c-2.461,2.692-3.183,6.175-4.066,9.524c-1.276,4.837-2.889,9.562-4.625,14.234c-1.43,3.846-2.745,4.046-5.693,1.346
		c-1.105-1.012-2.132-2.11-3.192-3.171c-63.638-63.637-127.273-127.275-190.922-190.902c-1.64-1.64-3.085-3.524-5.245-4.577
		l0.062,0.009C347.422,159.366,347.378,158.683,348.089,158.05z"/>
	<path fill-rule="evenodd" clip-rule="evenodd" fill="#E21717" d="M227,571c-5.701-2.553-11.92-1.979-17.885-2.816
		c-67.978-9.549-127.051-37.68-177.247-84.481c-0.723-0.674-1.335-1.468-2-2.204c-1.997-2.639-0.534-4.349,1.388-6.261
		c18.961-18.867,37.863-37.795,56.762-56.726c1.399-1.402,2.644-2.959,3.96-4.443c1.921,1.842,3.876,3.649,5.757,5.53
		c48.795,48.784,97.587,97.572,146.351,146.389c1.49,1.491,3.523,2.633,3.913,5.013c-0.333,0-0.667,0-1,0
		c-2.333-0.802-4.667-0.802-7,0c-2,0-4,0-6,0c-0.667-0.615-1.333-0.615-2,0C230.333,571,228.667,571,227,571z"/>
	<path fill-rule="evenodd" clip-rule="evenodd" fill="#7E5C18" d="M256,571c1.667-1.351,3.333-1.419,5,0
		C259.333,571,257.667,571,256,571z"/>
	<path fill-rule="evenodd" clip-rule="evenodd" fill="#F1D18F" d="M232,571c0.667-1.204,1.333-1.04,2,0
		C233.333,571,232.667,571,232,571z"/>
	<path fill-rule="evenodd" clip-rule="evenodd" fill="#FEFEFE" d="M322.577,307.221c23.457,9.646,46.729,19.786,70.46,28.702
		c9.999,3.757,15.048,10.078,17.08,19.874c0.572,2.761,1.366,5.475,2.059,8.21c2.151,4.428,2.126,9.323,2.823,14.028
		c1.084,7.31,2.88,14.521,3.157,21.946c0.268,1.626,0.534,3.253,0.802,4.879c-1.654,1.214-3.552,0.607-5.321,0.607
		c-102.058,0.034-204.116,0.032-306.174,0.015c-1.813-0.001-3.664,0.329-5.44-0.348c-0.345,0.001-0.689,0.002-1.034,0.003
		c-5.818,2.17-11.631,1.943-17.44-0.036c1.341-8.73,2.688-17.46,4.015-26.192c0.147-0.971,0.185-1.959,0.273-2.939
		c0.025-7.566,1.652-14.827,4.19-21.914c0.63-1.524,1.343-3.021,1.875-4.579c1.995-5.846,5.665-9.587,11.656-11.945
		c23.337-9.188,46.288-19.393,69.806-28.069c10.568-3.899,17.661-10.54,23.384-19.525c0.387-1.695,0.975-3.054,3.094-1.845
		c2.687,2.486,3.857,1.545,4.854-1.686c1.189-3.86,1.256-8.244,4.53-11.286c-0.03-4.728,0.039-9.45,0.794-14.134
		c-4.295-3.417-6.266-8.223-7.898-13.229c-0.271-4.651-4.455-7-6.31-10.72c-3.316-5.72-5.293-12.016-7.784-18.09
		c-2.914-6.612-3.69-13.586-3.506-20.722c0.018-0.67,0.07-1.416,0.439-1.907c3.95-5.25,1.48-10.907,1.112-16.429l0.065,0.104
		c-1.609-5.71-1.771-11.666-2.959-17.446c-0.416-2.149,0.133-4.384-0.553-6.512c-0.211-1.591-0.132-3.188-0.068-4.783
		c0.677-1.782,0.264-3.687,0.619-5.505c1.104-6.322,1.724-12.772,4.951-18.525c2.329-3.261,4.658-6.521,6.988-9.781
		c1.667-3.258,4.071-5.771,7.415-7.333c6.378-4.689,13.333-8.276,20.795-10.895c3.987-2.352,8.531-2.43,12.879-2.608
		c8.394-0.347,16.812-0.106,25.22-0.1c0.82,0.001,1.656-0.06,2.264,0.663c11.654,1.733,22.41,5.678,31.812,12.946
		c3.317,1.581,5.728,4.076,7.387,7.328c0.882,1.977,2.102,3.66,4.066,4.698c1.813,0.152,2.639,1.466,3.387,2.872
		c2.794,5.383,4.013,11.227,5.005,17.139c0.099,1.091,0.482,2.123,0.652,3.201c2.259,14.229-2.254,27.832-3.831,41.702
		c-0.165,1.729-0.882,3.372-0.833,5.14c0.104,0.702,0.255,1.396,0.506,2.063c0.355,0.976,0.711,1.95,1.065,2.926
		c1.315,4.958,0.606,9.768-1.064,14.507c-2.396,7.323-4.108,14.888-7.792,21.754c-1.567,2.921-3.084,5.853-6.199,7.477
		c-0.332,0.919,0.151,2.154-1.06,2.732c-1.807,6.349-3.044,12.984-8.779,17.344c0.84,2.641,0.638,5.3,0.14,7.964
		c-0.228,2.929-0.164,5.372,2.178,8.039c1.979,2.255,2.212,6.11,3.021,9.308c0.649,2.567,1.397,4.47,4.437,2.374
		c1.978-1.364,2.567,0.476,3.42,1.551c2.668,3.361,5.384,6.69,7.907,10.159c2.027,2.785,4.412,4.877,7.9,5.465
		C320.408,305.771,321.587,306.25,322.577,307.221z"/>
	<path fill-rule="evenodd" clip-rule="evenodd" fill="#FC1010" d="M310.945,124.815c-0.664-0.892-1.327-1.783-1.991-2.675
		c2.07-2.64,2.841,0.271,3.669,1.086c10.513,10.355,20.911,20.826,31.366,31.239c1.283,1.277,2.728,2.393,4.099,3.584
		c-0.045,0.678-0.091,1.354-0.138,2.032c-0.298-0.045-0.596-0.089-0.894-0.134c-2.236-0.394-3.862-1.749-5.412-3.302
		c-8.673-8.688-17.335-17.386-26.052-26.028C313.81,128.851,312.825,126.481,310.945,124.815z"/>
	<path fill-rule="evenodd" clip-rule="evenodd" fill="#7C0808" d="M100.013,405.997c-2.438,2.832-4.382,6.254-8.479,7.109
		c-1.91-1.904-3.818-3.81-5.727-5.714c-0.292-1.306,0.434-1.886,1.565-1.845C91.586,405.701,95.833,404.951,100.013,405.997z"/>
	<path fill-rule="evenodd" clip-rule="evenodd" fill="#F91B0B" d="M188.073,179.89c0.882,5.034,3.461,9.728,0.215,15.21
		c-2.938,4.963-0.727,10.719,0.084,16.096c0.393,2.607,1.094,5.169,1.655,7.751c-0.041,0.16-0.031,0.39-0.135,0.465
		c-0.22,0.159-0.499,0.239-0.754,0.352c-2.315-9.181-5.647-18.224-0.963-27.78C190.022,188.216,187.089,183.955,188.073,179.89z"/>
	<path fill-rule="evenodd" clip-rule="evenodd" fill="#F90808" d="M265.689,97.168c-13.481,0.137-27.029-1.042-40.361,2.045
		c1.992-1.969,4.928-3.108,9.858-3.162c11.069-0.12,22.141-0.037,33.586-0.037C267.799,97.39,266.59,96.843,265.689,97.168z"/>
	<path fill-rule="evenodd" clip-rule="evenodd" fill="#F90B0B" d="M185.113,151.469c0,1.37,0,2.741,0,4.111
		c0.858,2.062-0.07,4.317,0.696,6.39c0.871,5.995,2.201,11.931,2.329,18.023c-3.25-11.468-5.766-23.002-3.14-34.997
		c0.364,0.447,0.528,0.96,0.492,1.536C185.434,148.183,185.718,149.859,185.113,151.469z"/>
	<path fill-rule="evenodd" clip-rule="evenodd" fill="#F91010" d="M92.027,354.056c-1.397,7.305-2.793,14.609-4.19,21.914
		c-1.738-7.987,1.575-15.242,3.321-22.722c0.014-0.06,0.413-0.123,0.45-0.066C91.782,353.451,91.894,353.761,92.027,354.056z"/>
	<path fill-rule="evenodd" clip-rule="evenodd" fill="#F90D0D" d="M184.998,145.997c0.001-0.334,0.001-0.668,0.001-1.001
		c-0.219-5.864,1.832-11.265,3.465-16.744c0.198-0.666,0.458-1.756,1.665-1.03c-1.442,6.259-2.885,12.518-4.327,18.776
		C185.533,146.57,185.266,146.543,184.998,145.997z"/>
	<path fill-rule="evenodd" clip-rule="evenodd" fill="#F90D0D" d="M197.812,237.037c3.063,3.008,7.138,5.421,6.31,10.72
		c-0.043,0.16-0.071,0.325-0.131,0.478s-0.151,0.293-0.229,0.438C203.22,244.057,198.516,241.569,197.812,237.037z"/>
	<path fill-rule="evenodd" clip-rule="evenodd" fill="#F90808" d="M212.02,260.986c0.052,4.729,0.62,9.487-0.794,14.134
		C209.205,270.28,211.071,265.659,212.02,260.986z"/>
	<path fill-rule="evenodd" clip-rule="evenodd" fill="#720000" d="M100.013,405.997c-4.715,0.663-9.708-1.487-14.206,1.395
		c-0.751-0.763-1.503-1.526-2.256-2.29c5.812,0.012,11.625,0.024,17.438,0.036C100.664,405.424,100.338,405.71,100.013,405.997z"/>
	<path fill-rule="evenodd" clip-rule="evenodd" fill="#F90303" d="M204.532,110.107c-2.472,2.443-4.943,4.888-7.415,7.333
		C198.002,113.391,200.457,110.93,204.532,110.107z"/>
	<path fill-rule="evenodd" clip-rule="evenodd" fill="#F90303" d="M304.888,117.442c-2.462-2.442-4.924-4.885-7.387-7.328
		C301.563,110.943,304.002,113.411,304.888,117.442z"/>
	<path fill-rule="evenodd" clip-rule="evenodd" fill="#F90303" d="M201.842,288.092c-1.574-0.296-2.143,1.095-3.094,1.845
		c-0.901-1.417-0.1-2.262,1.12-2.636C200.483,287.112,201.914,286.083,201.842,288.092z"/>
	<path fill-rule="evenodd" clip-rule="evenodd" fill="#7C0808" d="M310.945,124.815c0.981,0.571,2.141,0.964,2.917,1.74
		c11.095,11.101,22.139,22.253,33.194,33.393c-10.68,10.542-21.373,21.071-32.007,31.659c-0.645,0.642-0.816,1.757-1.209,2.65
		c-0.298-0.362-0.595-0.725-0.893-1.086c-1.005-1.599,0.06-3.515-0.789-5.137c0.304-8.427,2.755-16.525,3.797-24.84
		c0.762-6.077,0.573-12.157,0.204-18.242c0.54-0.921,0.277-1.935,0.337-2.91c0.021-0.339-0.026-0.662-0.114-0.968
		c0.06,0.478-0.029,0.892-0.496,1.141C314.239,136.416,312.593,130.615,310.945,124.815z"/>
	<path fill-rule="evenodd" clip-rule="evenodd" fill="#EA1818" d="M559.81,334c-2.358,10.088-5.55,19.908-9.464,29.489
		c-1.428-1.616-2.78-3.306-4.301-4.826c-64.591-64.615-129.198-129.214-193.792-193.826c-1.521-1.521-2.912-3.173-4.364-4.764
		c2.702,0.081,3.949,2.306,5.547,3.903c63.627,63.581,127.228,127.188,190.832,190.792c0.941,0.942,1.951,1.827,2.814,2.837
		c2.194,2.566,3.579,2.427,4.592-0.994c1.936-6.54,4.081-13.018,6.095-19.534C558.156,335.822,558.117,334.359,559.81,334z"/>
	<path fill-rule="evenodd" clip-rule="evenodd" fill="#660000" d="M102.022,405.135c1.996-0.058,3.991-0.165,5.986-0.165
		c101.651-0.009,203.304-0.007,304.955-0.012c1.998,0,3.996-0.063,5.994-0.098c-1.45,1.615-3.393,1.124-5.17,1.125
		c-102.32,0.02-204.642,0.019-306.962,0.007C105.187,405.992,103.463,406.31,102.022,405.135z"/>
	<path fill-rule="evenodd" clip-rule="evenodd" fill="#6B0D0D" d="M418.156,399.981c-2.707-11.873-3.975-23.985-5.98-35.975
		c0.822,0.262,1.534,0.672,1.684,1.604c1.707,10.695,3.423,21.391,5.051,32.099C419.017,398.412,418.424,399.222,418.156,399.981z"
		/>
	<path fill-rule="evenodd" clip-rule="evenodd" fill="#630505" d="M313.841,211.69c0.339-4.837,1.525-9.611,1.064-14.507
		c0.06-0.155,0.075-0.382,0.188-0.451c0.217-0.134,0.489-0.179,0.738-0.261c0.398,5.45,0.412,10.874-1.136,16.185
		c-0.007,0.022-0.378,0.018-0.434-0.068C314.085,212.313,313.976,211.993,313.841,211.69z"/>
	<path fill-rule="evenodd" clip-rule="evenodd" fill="#5E3700" d="M290.15,268.961c-0.046-2.654-0.093-5.309-0.14-7.964
		C291.58,263.625,291.382,266.284,290.15,268.961z"/>
	<path fill-rule="evenodd" clip-rule="evenodd" fill="#6B0D0D" d="M322.577,307.221c-1.188-0.455-2.376-0.909-3.563-1.364
		C320.632,305.188,322.138,304.81,322.577,307.221z"/>
	<path fill-rule="evenodd" clip-rule="evenodd" fill="#5F3700" d="M298.79,243.653c0.155-0.987-0.325-2.222,1.06-2.732
		C300.52,242.229,300.723,243.354,298.79,243.653z"/>
	<path fill-rule="evenodd" clip-rule="evenodd" fill="#FC1010" d="M185.81,161.97c-1.363-2.005-0.702-4.23-0.696-6.388
		C185.885,157.65,185.938,159.8,185.81,161.97z"/>
	<path fill-rule="evenodd" clip-rule="evenodd" fill="#6D0000" d="M312.159,188.035c1.25,1.561,0.729,3.393,0.789,5.137
		C310.804,191.748,312.265,189.771,312.159,188.035z"/>
	<path fill-rule="evenodd" clip-rule="evenodd" fill="#FC1010" d="M184.998,145.997c0.268,0,0.536,0,0.804,0.001
		c0.104,1.863,0.136,3.719-0.688,5.468C185.075,149.645,185.036,147.821,184.998,145.997z"/>
	<path fill-rule="evenodd" clip-rule="evenodd" fill="#6D0000" d="M315.887,142.216c0.324-0.226,0.264-1.788,0.964-0.498
		c0.522,0.964,0.194,2.29-0.69,3.235C316.068,144.04,315.978,143.128,315.887,142.216z"/>
</g>
</svg>
